<?xml version="1.0" encoding="UTF-8" standalone="no"?>
<!DOCTYPE svg PUBLIC "-//W3C//DTD SVG 1.1//EN" "http://www.w3.org/Graphics/SVG/1.1/DTD/svg11.dtd">
<svg width="100%" height="100%" viewBox="0 0 333 232" version="1.1" xmlns="http://www.w3.org/2000/svg" xmlns:xlink="http://www.w3.org/1999/xlink" xml:space="preserve" xmlns:serif="http://www.serif.com/" style="fill-rule:evenodd;clip-rule:evenodd;stroke-linejoin:round;stroke-miterlimit:2;"><path d="M34.568,51.743l0,-35.462c0,-7.153 1.192,-9.835 9.834,-9.835c18.477,0 28.013,8.345 28.013,24.734c-0,16.689 -10.729,25.927 -31.291,25.927c-5.066,-0 -6.556,-1.192 -6.556,-5.364m-34.568,64.071l51.853,-0l-0,-3.278c-14.9,-0.298 -17.285,-3.577 -17.285,-19.072l0,-27.119c0,-2.98 0.596,-3.278 2.98,-3.278l1.789,-0c13.111,-0 24.138,-0.298 33.673,-4.172c11.325,-4.47 18.477,-15.198 18.477,-28.608c0,-19.371 -14.006,-30.099 -41.124,-30.099l-50.363,-0l0,3.576c14.305,0.597 16.092,3.576 16.092,14.603l0,75.097c0,15.198 -2.086,19.072 -16.092,19.072l0,3.278Z" style="fill:#2b4168;"/><path d="M164.569,75.013l9.835,24.648c0.595,1.761 0.894,3.522 0.894,4.989c-0,5.575 -3.279,7.335 -11.325,7.629l0,3.228l43.211,-0l-0,-3.228c-3.874,-0 -6.258,-0.587 -8.642,-2.641c-2.087,-2.054 -4.173,-5.282 -6.258,-10.27l-40.827,-99.181l-3.576,0l-42.615,97.42c-4.47,9.977 -7.748,14.378 -15.198,14.672l-0,3.228l33.972,-0l0,-3.228l-0.894,-0c-7.747,-0 -11.325,-2.348 -11.325,-7.043c0,-2.053 0.597,-4.987 2.385,-9.096l8.642,-21.127l21.754,-51.057l19.967,51.057Z" style="fill:#2b4168;"/><path d="M241.427,96.256l0,-73.607l72.118,92.977l3.278,0l0,-96.255c0,-11.623 1.489,-14.603 15.496,-15.795l0,-3.576l-38.443,-0l0,3.576c13.709,1.192 15.199,4.172 15.199,15.795l0,62.878l-63.177,-82.249l-27.417,-0l0,3.576c7.153,0.597 11.622,4.47 15.497,11.92l-0,80.76c-0,11.622 -1.789,14.603 -15.497,15.794l0,3.576l38.144,0l0,-3.576c-13.707,-1.191 -15.198,-4.172 -15.198,-15.794" style="fill:#2b4168;"/><path d="M32.819,223.447c2.323,0.675 4.619,1.203 6.878,1.6c12.181,2.148 23.503,0.528 35.444,-1.387c25.145,-5.192 49.081,-19.786 70.648,-29.706c6.187,-2.851 12.226,-5.664 18.118,-8.422c-31.479,-16.741 -53.221,-33.611 -66.526,-49.621c-15.278,-18.397 -19.502,-35.749 -14.587,-50.583c1.484,-4.479 3.467,-8.467 5.892,-11.929c5.468,-7.791 13.185,-12.955 22.526,-15.167c9.22,-2.175 20.027,-1.462 31.811,2.471c9.238,3.081 19.077,8.134 29.22,15.306c0.756,0.537 0.94,1.583 0.406,2.342c-0.536,0.758 -1.578,0.943 -2.334,0.406c-9.884,-6.986 -19.427,-11.891 -28.335,-14.871c-11.166,-3.729 -21.354,-4.423 -30.003,-2.378c-8.529,2.018 -15.555,6.719 -20.544,13.826c-2.249,3.211 -4.084,6.903 -5.458,11.04c-4.546,13.724 -0.479,29.965 13.987,47.391c13.343,16.065 35.472,33.065 67.753,49.981l0.009,0.009c24.721,-11.549 46.979,-21.913 67.578,-28.9c16.625,-5.636 33.803,-8.385 49.164,-6.932c13.997,1.333 31.811,5.942 40.1,18.398c1.899,2.859 3.467,5.7 4.675,8.514c2.453,5.709 3.458,11.336 2.951,16.879c-0.821,9.078 -5.68,17.795 -14.836,26.134c-0.074,0.073 -0.148,0.139 -0.24,0.203c-23.098,15.945 -47.827,16.445 -73.414,8.709c-21.502,-6.506 -43.576,-18.823 -65.789,-32.621c-35.379,15.556 -73.82,31.371 -98.604,36.184c-11.572,2.248 -28.418,2.276 -43.143,-1.666c-19.751,-5.293 -34.624,-16.111 -36.08,-37.387c-0.498,-7.246 1.17,-14.455 5.08,-21.331c4.675,-8.227 10.069,-13.382 16.616,-16.537c6.482,-3.118 14.015,-4.22 23.051,-4.34c12.724,-0.177 26.131,2.655 39.98,7.422c13.776,4.746 28.003,11.419 42.424,18.942c0.82,0.427 1.144,1.444 0.719,2.268c-0.424,0.824 -1.438,1.147 -2.259,0.722c-14.292,-7.459 -28.372,-14.066 -41.962,-18.749c-13.527,-4.665 -26.565,-7.431 -38.856,-7.255c-8.575,0.12 -15.666,1.129 -21.65,4.016c-5.92,2.85 -10.834,7.579 -15.149,15.167c-3.578,6.284 -5.099,12.855 -4.647,19.443c1.254,18.24 12.521,27.485 29.386,32.409Zm248.632,-69.194c-15.445,2.064 -31.94,8.153 -45.725,14.141c-14.66,6.366 -33.766,15.13 -54.078,24.107c21.345,13.177 42.506,24.838 63.013,31.038c24.637,7.45 48.389,7.024 70.473,-8.19c8.482,-7.745 12.972,-15.723 13.719,-23.931c0.655,-7.209 -1.503,-14.733 -6.528,-22.386c-9.377,-14.27 -24.849,-16.916 -40.874,-14.779Z" style="fill:#2b4168;"/></svg>